<svg xmlns="http://www.w3.org/2000/svg" xmlns:xlink="http://www.w3.org/1999/xlink" width="500" zoomAndPan="magnify" viewBox="0 0 375 374.999991" height="500" preserveAspectRatio="xMidYMid meet" version="1.2"><defs/><g id="fbfc128b2f"><g style="fill:#004aad;fill-opacity:1;"><g transform="translate(14.390779, 237.307907)"><path style="stroke:none" d="M 78.453125 -78.125 C 80.898438 -76.320312 82.46875 -73.878906 83.15625 -70.796875 C 83.84375 -67.710938 83.285156 -64.628906 81.484375 -61.546875 C 76.910156 -53.890625 72.363281 -46.257812 67.84375 -38.65625 C 63.332031 -31.0625 58.628906 -23.546875 53.734375 -16.109375 C 50.222656 -10.898438 45.863281 -8.160156 40.65625 -7.890625 C 35.445312 -7.628906 30.71875 -9.835938 26.46875 -14.515625 C 24.976562 -16.210938 23.617188 -18.046875 22.390625 -20.015625 C 21.171875 -21.984375 20.191406 -23.972656 19.453125 -25.984375 C 17.222656 -32.367188 15.097656 -38.800781 13.078125 -45.28125 C 11.054688 -51.769531 9.035156 -58.253906 7.015625 -64.734375 C 6.054688 -68.140625 5.738281 -71.539062 6.0625 -74.9375 C 6.269531 -78.238281 7.648438 -80.445312 10.203125 -81.5625 C 12.753906 -82.675781 15.304688 -82.222656 17.859375 -80.203125 C 19.453125 -78.929688 20.910156 -77.46875 22.234375 -75.8125 C 23.566406 -74.164062 24.765625 -72.441406 25.828125 -70.640625 C 28.171875 -66.703125 30.484375 -62.660156 32.765625 -58.515625 C 35.054688 -54.367188 37.421875 -50.117188 39.859375 -45.765625 C 42.097656 -48.847656 44.28125 -51.898438 46.40625 -54.921875 C 48.53125 -57.953125 50.65625 -60.957031 52.78125 -63.9375 C 54.269531 -65.957031 55.753906 -68.003906 57.234375 -70.078125 C 58.722656 -72.148438 60.375 -74.09375 62.1875 -75.90625 C 64.632812 -78.34375 67.34375 -79.75 70.3125 -80.125 C 73.289062 -80.5 76.003906 -79.832031 78.453125 -78.125 Z M 78.453125 -78.125 "/></g></g><g style="fill:#004aad;fill-opacity:1;"><g transform="translate(103.839729, 237.307907)"><path style="stroke:none" d="M 56.28125 -74.9375 C 61.070312 -74.195312 65.21875 -72.46875 68.71875 -69.75 C 72.226562 -67.039062 74.832031 -63.664062 76.53125 -59.625 C 78.238281 -55.59375 78.71875 -51.1875 77.96875 -46.40625 C 77.226562 -40.664062 75.710938 -35.320312 73.421875 -30.375 C 71.140625 -25.4375 67.925781 -20.945312 63.78125 -16.90625 C 56.976562 -10.3125 48.738281 -7.066406 39.0625 -7.171875 C 35.769531 -7.921875 32.445312 -8.585938 29.09375 -9.171875 C 25.75 -9.753906 22.484375 -10.578125 19.296875 -11.640625 C 13.023438 -13.867188 8.453125 -17.425781 5.578125 -22.3125 C 2.710938 -27.207031 1.753906 -32.953125 2.703125 -39.546875 C 3.878906 -47.304688 6.515625 -54.082031 10.609375 -59.875 C 14.703125 -65.664062 20.09375 -70.582031 26.78125 -74.625 C 32.53125 -78.03125 38.695312 -78.828125 45.28125 -77.015625 C 47.09375 -76.484375 48.925781 -76.054688 50.78125 -75.734375 C 52.644531 -75.421875 54.476562 -75.15625 56.28125 -74.9375 Z M 51.65625 -44.171875 C 52.9375 -47.992188 51.984375 -51.019531 48.796875 -53.25 C 45.816406 -55.382812 43.53125 -56.742188 41.9375 -57.328125 C 40.34375 -57.910156 38.90625 -57.644531 37.625 -56.53125 C 36.351562 -55.414062 34.707031 -53.367188 32.6875 -50.390625 C 32.050781 -49.429688 31.519531 -48.632812 31.09375 -48 C 28.007812 -42.570312 27.050781 -38.769531 28.21875 -36.59375 C 29.394531 -34.414062 33.0625 -33.164062 39.21875 -32.84375 C 42.414062 -32.738281 44.890625 -33.507812 46.640625 -35.15625 C 48.390625 -36.800781 50.0625 -39.804688 51.65625 -44.171875 Z M 51.65625 -44.171875 "/></g></g><g style="fill:#004aad;fill-opacity:1;"><g transform="translate(185.95417, 237.307907)"><path style="stroke:none" d="M 72.703125 -80.203125 C 75.679688 -78.816406 77.78125 -76.582031 79 -73.5 C 80.226562 -70.425781 80.148438 -66.867188 78.765625 -62.828125 C 77.066406 -57.617188 75.234375 -52.4375 73.265625 -47.28125 C 71.296875 -42.125 69.09375 -37.046875 66.65625 -32.046875 C 61.445312 -21.203125 56.078125 -10.441406 50.546875 0.234375 C 45.015625 10.921875 39.488281 21.578125 33.96875 32.203125 C 33.113281 33.796875 32.15625 35.390625 31.09375 36.984375 C 30.03125 38.585938 28.753906 39.757812 27.265625 40.5 C 23.648438 42.414062 19.769531 42.945312 15.625 42.09375 C 13.5 41.664062 11.847656 40.519531 10.671875 38.65625 C 9.503906 36.800781 8.976562 34.757812 9.09375 32.53125 C 9.09375 30.613281 9.25 28.695312 9.5625 26.78125 C 9.882812 24.875 10.363281 23.066406 11 21.359375 C 12.695312 17.109375 14.445312 12.859375 16.25 8.609375 C 18.0625 4.359375 19.976562 0.160156 22 -3.984375 C 22.644531 -5.578125 22.992188 -7.007812 23.046875 -8.28125 C 23.097656 -9.5625 22.75 -11 22 -12.59375 C 19.5625 -18.125 17.117188 -23.675781 14.671875 -29.25 C 12.222656 -34.832031 10.039062 -40.441406 8.125 -46.078125 C 7.0625 -49.265625 6.476562 -52.5625 6.375 -55.96875 C 6.269531 -59.375 6.113281 -62.722656 5.90625 -66.015625 C 5.789062 -68.035156 6.101562 -69.894531 6.84375 -71.59375 C 7.59375 -73.289062 9.085938 -74.460938 11.328125 -75.109375 C 13.765625 -75.742188 15.675781 -75.394531 17.0625 -74.0625 C 18.445312 -72.738281 19.5625 -71.117188 20.40625 -69.203125 C 22.21875 -65.378906 23.972656 -61.523438 25.671875 -57.640625 C 27.367188 -53.765625 29.125 -49.859375 30.9375 -45.921875 C 31.46875 -44.859375 32.078125 -43.769531 32.765625 -42.65625 C 33.453125 -41.539062 34.222656 -40.1875 35.078125 -38.59375 C 36.242188 -40.71875 37.304688 -42.628906 38.265625 -44.328125 C 39.222656 -46.023438 40.179688 -47.671875 41.140625 -49.265625 C 43.585938 -53.304688 46.003906 -57.347656 48.390625 -61.390625 C 50.785156 -65.429688 53.257812 -69.414062 55.8125 -73.34375 C 58.144531 -76.957031 60.800781 -79.347656 63.78125 -80.515625 C 66.757812 -81.691406 69.734375 -81.585938 72.703125 -80.203125 Z M 72.703125 -80.203125 "/></g></g><g style="fill:#004aad;fill-opacity:1;"><g transform="translate(271.735879, 237.307907)"><path style="stroke:none" d="M 81.953125 -31.890625 C 83.015625 -27.109375 83.066406 -23.09375 82.109375 -19.84375 C 81.160156 -16.601562 79.144531 -14.347656 76.0625 -13.078125 C 72.757812 -11.691406 69.515625 -11.71875 66.328125 -13.15625 C 63.140625 -14.59375 60.164062 -17.328125 57.40625 -21.359375 C 57.1875 -21.679688 56.914062 -22.03125 56.59375 -22.40625 C 56.28125 -22.78125 55.96875 -23.234375 55.65625 -23.765625 C 54.800781 -23.234375 54.023438 -22.671875 53.328125 -22.078125 C 52.640625 -21.492188 51.875 -20.988281 51.03125 -20.5625 C 48.789062 -19.5 46.554688 -18.359375 44.328125 -17.140625 C 42.097656 -15.921875 39.757812 -15.046875 37.3125 -14.515625 C 31.351562 -13.023438 25.898438 -13.289062 20.953125 -15.3125 C 16.015625 -17.332031 12.164062 -20.625 9.40625 -25.1875 C 6.644531 -29.757812 5.53125 -35.128906 6.0625 -41.296875 C 6.375 -46.296875 7.671875 -51.1875 9.953125 -55.96875 C 12.242188 -60.75 15.171875 -65.1875 18.734375 -69.28125 C 22.296875 -73.375 26.304688 -76.800781 30.765625 -79.5625 C 35.234375 -82.332031 39.804688 -84.085938 44.484375 -84.828125 C 49.796875 -85.785156 54.601562 -85.226562 58.90625 -83.15625 C 63.21875 -81.082031 67.34375 -78.554688 71.28125 -75.578125 C 72.550781 -74.617188 73.476562 -73.128906 74.0625 -71.109375 C 74.644531 -69.097656 75.097656 -67.1875 75.421875 -65.375 C 76.691406 -59.84375 77.804688 -54.257812 78.765625 -48.625 C 79.722656 -43 80.785156 -37.421875 81.953125 -31.890625 Z M 35.875 -37.625 C 40.769531 -39.539062 44.488281 -43.101562 47.03125 -48.3125 C 49.582031 -53.519531 50.328125 -59.15625 49.265625 -65.21875 C 43.953125 -63.09375 39.78125 -60.085938 36.75 -56.203125 C 33.71875 -52.328125 31.300781 -47.890625 29.5 -42.890625 C 29.289062 -42.148438 29.1875 -41.140625 29.1875 -39.859375 C 29.1875 -38.585938 29.394531 -37.84375 29.8125 -37.625 C 30.664062 -37.207031 31.648438 -37 32.765625 -37 C 33.878906 -37 34.914062 -37.207031 35.875 -37.625 Z M 35.875 -37.625 "/></g></g></g></svg>